<svg xmlns="http://www.w3.org/2000/svg" viewBox="0 0 141.73 141.73"><defs><style>.a{fill:#a38671;}</style></defs><path class="a" d="M29.63,65.81H19.24a4.29,4.29,0,0,0-3.06,1.29,4.15,4.15,0,0,0-1.2,3,4.26,4.26,0,0,0,1.21,3.07,4.05,4.05,0,0,0,2.93,1.19h6.43A2.33,2.33,0,0,1,28,76.66a2.48,2.48,0,0,1-2.44,2.41H14.9V81.3H25.55a4.75,4.75,0,0,0,4.65-4.64,4.56,4.56,0,0,0-4.65-4.55H19.1a1.85,1.85,0,0,1-1.33-.53,2.08,2.08,0,0,1-.58-1.5,2,2,0,0,1,.58-1.42A2,2,0,0,1,19.26,68H29.63V65.81m19-.08V76.24a3,3,0,0,1-.88,2.12,2.88,2.88,0,0,1-2.08.84,3,3,0,0,1-3-3V65.73H40.47V76.27h0a2.9,2.9,0,0,1-.82,2.07,3,3,0,0,1-2.14.86,2.72,2.72,0,0,1-2-.82,2.86,2.86,0,0,1-.84-2.12V65.73H32.45V76.24A5.16,5.16,0,0,0,33.93,80a5,5,0,0,0,3.58,1.48,5.14,5.14,0,0,0,3.72-1.53c.13-.14.27-.29.39-.44a5.08,5.08,0,0,0,4,2,5.15,5.15,0,0,0,3.66-1.49,5.1,5.1,0,0,0,1.51-3.7V65.73H48.61m17.27-.06H61A7.94,7.94,0,0,0,53,73.47,8.13,8.13,0,0,0,61,81.56a7.05,7.05,0,0,0,2.64-.45v-2.3h-.26l-.21.1a5,5,0,0,1-2.14.43,5.91,5.91,0,0,1-5.88-5.87A5.65,5.65,0,0,1,61,67.9h3.76V81.24H67V65.67h-1.1M75.07,79.2a2.77,2.77,0,0,1-2-.84,2.53,2.53,0,0,1-.72-1.83V67.9h5.32V65.67H72.37v-4H70.15V76.51A4.64,4.64,0,0,0,71.5,79.9a5,5,0,0,0,3.57,1.53h3.15V79.2H75.07m16.19-3.28A5.75,5.75,0,0,1,86,79.34a5.83,5.83,0,0,1-4.17-1.71,5.72,5.72,0,0,1-1.68-4.14A5.89,5.89,0,0,1,86,67.64a5.72,5.72,0,0,1,4.6,2.41l1.83-1.27A7.89,7.89,0,0,0,86,65.41a8.13,8.13,0,0,0-8.1,8.08,8.05,8.05,0,0,0,15.39,3.34l-2-.91m10.32-10.51a6.52,6.52,0,0,0-4.51,1.72V61.67H94.84V81.24h2.23V72.16a4.44,4.44,0,0,1,4.51-4.52,4.62,4.62,0,0,1,4.69,4.55v9h2.23V72.17a6.84,6.84,0,0,0-6.92-6.76m10.15.72h15.1V81.24h-15.1Zm14,5.65h-4.61V67.19h-3.8v4.59h-4.73v3.81h4.73v4.73h3.8V75.59h4.61V71.78"/></svg>