<svg xmlns="http://www.w3.org/2000/svg" viewBox="0 0 141.73 141.73"><defs><style>.a{fill:#a38671;fill-rule:evenodd;}</style></defs><path class="a" d="M38.31,81.29V71.62l-4.15,9.67h-2.3l-4.08-9.67v9.67H23.49V64.54h5.74L33.17,74l4.12-9.45h5.3V81.29Zm7.58,0V64.54h3.67a.69.69,0,0,1,.64.67V81.29Zm16.2-9.65h5.45a.69.69,0,0,1,.67.77v8.65a30.31,30.31,0,0,1-5.71.55c-6.24,0-9.54-3-9.54-8.72,0-5.13,3.3-8.68,8.79-8.68a10.87,10.87,0,0,1,5.9,1.57L66,68.66a10.65,10.65,0,0,0-3.89-.9c-3.16,0-4.64,2.1-4.64,5.13,0,3.24,1.71,5.24,4.87,5.24A12.9,12.9,0,0,0,64.16,78v-3H62.09Zm15.68-3.88H75.66V72h2.11A2,2,0,0,0,80,69.7C80,68.08,79,67.76,77.77,67.76Zm3.17,13.53-2-4.61c-.4-.94-.69-1.41-1.55-1.41H75.66v6H71.45V65.21a.74.74,0,0,1,.65-.67h6c3.23,0,6,.67,6,4.84a4,4,0,0,1-3,4.16,5.05,5.05,0,0,1,2.47,2.91l1.91,4.84ZM94.76,67.76c-2.26,0-3.87,1.62-3.87,5.13s1.61,5.17,3.87,5.17c1.94,0,3.53-1.61,3.53-5.17S96.7,67.76,94.76,67.76Zm0,13.85c-5.48,0-8.38-3.87-8.38-8.72s2.9-8.68,8.38-8.68c5.14,0,8,3.87,8,8.68S99.9,81.61,94.76,81.61Zm16.29,0a12.85,12.85,0,0,1-6.63-1.82l1.91-3.39a10.72,10.72,0,0,0,5,1.64c1.08,0,2.44-.21,2.44-1.41s-1.52-1.47-3.53-2c-2.41-.69-5.23-1.65-5.23-4.9,0-3.51,3.12-5.47,7.17-5.47a8.57,8.57,0,0,1,5.8,2l-2.32,2.65a7.1,7.1,0,0,0-3.65-1.22c-1.58,0-2.48.6-2.48,1.48s1.15,1.31,2.6,1.75c2.56.79,6.06,1.59,6.06,5S115.48,81.61,111.05,81.61Z"/></svg>