<svg xmlns="http://www.w3.org/2000/svg" viewBox="0 0 141.73 141.73"><defs><style>.a{fill:#a38671;fill-rule:evenodd;}</style></defs><path class="a" d="M32.31,82.83V71.38L27.4,82.83H24.67L19.84,71.38V82.83H14.76V63h6.8l4.66,11.2L31.11,63h6.27V82.83Zm9,0V63h4.34a.82.82,0,0,1,.76.8v19ZM60.47,71.41h6.45a.82.82,0,0,1,.8.9V82.56a35.33,35.33,0,0,1-6.76.65c-7.4,0-11.3-3.52-11.3-10.32,0-6.08,3.9-10.28,10.41-10.28a12.86,12.86,0,0,1,7,1.85l-2,3.42a12.59,12.59,0,0,0-4.61-1.07c-3.74,0-5.49,2.48-5.49,6.08,0,3.83,2,6.2,5.76,6.2A16.38,16.38,0,0,0,62.93,79v-3.5H60.47ZM79,66.81h-2.5v5H79a2.43,2.43,0,0,0,2.66-2.68C81.7,67.2,80.53,66.81,79,66.81Zm3.76,16-2.36-5.46c-.48-1.11-.82-1.66-1.84-1.66H76.54v7.12h-5v-19a.88.88,0,0,1,.77-.8h7c3.83,0,7.11.8,7.11,5.73,0,2.22-1.23,4.48-3.53,4.94a5.92,5.92,0,0,1,2.92,3.44l2.27,5.73Zm16.36-16c-2.67,0-4.58,1.91-4.58,6.08S96.49,79,99.16,79c2.3,0,4.18-1.91,4.18-6.12S101.46,66.81,99.16,66.81Zm0,16.4c-6.49,0-9.93-4.58-9.93-10.32s3.44-10.28,9.93-10.28c6.09,0,9.53,4.59,9.53,10.28S105.25,83.21,99.16,83.21Zm19.3,0a15.34,15.34,0,0,1-7.86-2.15l2.26-4a12.88,12.88,0,0,0,6,1.93c1.28,0,2.9-.24,2.9-1.67s-1.81-1.74-4.18-2.42c-2.87-.82-6.2-2-6.2-5.81,0-4.15,3.69-6.47,8.49-6.47a10.13,10.13,0,0,1,6.87,2.32L124,68.06a8.44,8.44,0,0,0-4.32-1.44c-1.87,0-2.94.71-2.94,1.75s1.36,1.55,3.08,2.07c3,.94,7.18,1.89,7.18,5.87S123.7,83.21,118.46,83.21Z"/></svg>