<svg xmlns="http://www.w3.org/2000/svg" viewBox="0 0 141.73 141.73"><defs><style>.a{fill:#a38671;}</style></defs><path class="a" d="M36.07,54.91c-7.43,0-13.74,5.31-13.74,13.48C22.33,75.73,28,81.56,36,81.56c7.42,0,13.73-5.31,13.73-13.48C49.74,60.75,44.12,54.91,36.07,54.91Zm0,25.08c-4.84,0-8.3-4.95-8.3-11.78,0-6.53,3.28-11.7,8.23-11.7s8.3,5,8.3,11.78C44.3,74.81,41,80,36.07,80Zm77-15v1.12l1.49.29c.52.11.66.52.34,1.33L111.5,76c-.14.34-.34.34-.43,0l-3.17-8.2c-.34-.84-.15-1.22.37-1.33l1.47-.29V65H96.59v1.12l1.49.29c.51.11.71.52.37,1.33L95.17,76.4c-.15.34-.34.34-.44,0L91.4,67.76c-.3-.84-.15-1.22.37-1.33l1.47-.29V65H84.89v1.14l.83.17a1.45,1.45,0,0,1,1.11.93l5.65,13.88H95l5.64-13.88c.29-.73.63-1,1.22-1h.22c.49,0,.84.18,1.15.89l5.91,14.42-1.59,3.76c-1,2.51-1.8,3-2.77,3-.4,0-.84-.07-1.29-.07a1.74,1.74,0,0,0-1.85,1.7c0,1,.83,1.7,2.11,1.7,1.84,0,3.65-1.49,5.17-5l8-18.88a2.06,2.06,0,0,1,1.62-1.37l.81-.15V65ZM61.32,79.71l-6.16.78c-2,.26-2.67-.4-2.67-1.44,0-1.21,1.32-2.18,5.95-2.18h.07c3.35,0,7.31-2,7.31-6.43a5.41,5.41,0,0,0-1.49-3.73,4.77,4.77,0,0,1-.44-2.28c0-3.26,2.22-5.1,4.52-5.1,1,0,1.26.15,1.26.82,0,.18,0,.34,0,.55a2.31,2.31,0,0,0,4.61-.11c0-1.84-1.67-3.22-4.72-3.22-4.23,0-7.46,2.74-7.46,6.91,0,.34.05.6.05.84a8.68,8.68,0,0,0-3.45-.66c-3.33,0-7.31,2-7.31,6.42a5.78,5.78,0,0,0,3.14,5c-3,.4-4.64,2-4.64,4.46s2,4.32,5.72,3.88L61,83.58c2.68-.34,3.57.63,3.57,2,0,2.44-2.28,4.4-5.95,4.4-2.91,0-4-1-4-2.51l0-.72a1.46,1.46,0,0,0-1.44-1.56A1.63,1.63,0,0,0,51.52,87c0,2.44,2.33,4.61,7.08,4.61,5.36,0,8.76-3.46,8.76-7.46,0-3.15-2.53-4.88-6-4.45ZM58.55,65.8c1.74,0,3.14,2,3.14,5,0,2.57-1.18,4.81-3,4.81s-3.17-2-3.17-5c0-2.56,1.16-4.81,3-4.81ZM83.44,79.24V53.68l-6.51,1.67v.78l1.85.59a.62.62,0,0,1,.4.64V79.15a.75.75,0,0,1-.82.71l-1.65,0-1.75,0a.74.74,0,0,1-.83-.71V64.41l-6.48,1.65v.78l1.84.59a.63.63,0,0,1,.41.64V79.26a.49.49,0,0,1-.44.55L68,80v1.18H85.67V80l-1.8-.18a.53.53,0,0,1-.43-.57Z"/></svg>