<svg xmlns="http://www.w3.org/2000/svg" viewBox="0 0 141.73 141.73"><defs><style>.a{fill:#a38671;}</style></defs><path class="a" d="M93.45,68.55A8.37,8.37,0,0,0,90.63,68c-1.08,0-1.93.3-1.93,1.26,0,2.3,6,.89,6,5.64,0,3.23-2.63,4.46-5.56,4.46a13.7,13.7,0,0,1-3.94-.6l.23-2.82A13,13,0,0,0,89,76.6c1.15,0,2.08-.33,2.08-1.37,0-2.49-6-.89-6-5.65,0-3,2.49-4.19,5.27-4.19a11.28,11.28,0,0,1,3.75.59Zm-10.91,0A8.57,8.57,0,0,0,79.72,68c-1.08,0-1.93.3-1.93,1.26,0,2.3,6,.89,6,5.64,0,3.23-2.63,4.46-5.56,4.46a14.58,14.58,0,0,1-4-.6l.26-2.82a13.44,13.44,0,0,0,3.6.67c1.11,0,2-.33,2-1.37,0-2.49-6-.89-6-5.65,0-3,2.52-4.19,5.27-4.19a11.48,11.48,0,0,1,3.78.59Zm55.07-3.16c2.6,0,4.12,1.41,4.12,4.45v9.21h-3.45v-8.5c0-1.37-.41-2.3-1.85-2.3s-2.75,1.3-2.75,3.6v7.2h-3.42v-8.5c0-1.3-.4-2.3-1.89-2.3s-2.75,1.41-2.75,3.75v7H122.1V65.65c2.3-.3,3.15.67,3.26,2.15a4.67,4.67,0,0,1,4.2-2.41,3.44,3.44,0,0,1,3.71,2.6,4.55,4.55,0,0,1,4.34-2.6Zm-70.47.26a95.82,95.82,0,0,1-3.9,13.4H59.6L57,70.1h0l-2.57,9H50.81a93.48,93.48,0,0,1-3.9-13.4h3.45l2.27,9.21h0l2.71-9.21h3.45l2.64,9.13h0l2.3-9.13Zm-22.27,2.9A8.37,8.37,0,0,0,42.05,68c-1.08,0-1.89.3-1.89,1.26,0,2.3,5.93.89,5.93,5.64,0,3.23-2.63,4.46-5.56,4.46a13.7,13.7,0,0,1-3.94-.6l.22-2.82a13.46,13.46,0,0,0,3.61.67c1.15,0,2.07-.33,2.07-1.37,0-2.49-6-.89-6-5.65,0-3,2.48-4.19,5.27-4.19a11.47,11.47,0,0,1,3.75.59Zm68.73,10.8c-3.82,0-6.46-2.08-6.46-6.76,0-4.19,2.82-7.2,6.87-7.2,3.79,0,6.24,2.12,6.24,6.68,0,4.38-2.68,7.28-6.65,7.28Zm.11-11c-1.56,0-3,1.15-3,4.09,0,2.56,1,4,3,4,1.7,0,3-1.38,3-4.09s-.93-4-3-4Zm-45,10.73h3.45V65.65c-1.59-.15-3.45.3-3.45,2.82ZM70.63,64a2.14,2.14,0,0,0,2.19-2.11A2.16,2.16,0,1,0,70.63,64Zm32,15.33c-4,0-6.56-2-6.56-6.72,0-4,2.22-7.13,7.08-7.13a10.53,10.53,0,0,1,3.27.56l-.74,2.82a6.64,6.64,0,0,0-2.45-.48c-2.49,0-3.53,1.63-3.53,4.08s.93,4,3.38,4a6.92,6.92,0,0,0,2.71-.59l.41,2.75A7.62,7.62,0,0,1,102.65,79.31Z"/><path class="a" d="M27.09,72.74c-.18-.22-.37-.41-.55-.63H23.72a1.42,1.42,0,0,1,.07-.22H13.4V73h10s0,0,0,0a1.07,1.07,0,0,1,.07-.19Z"/><path class="a" d="M28.61,74.93a2.53,2.53,0,0,0-.25-.45.93.93,0,0,0-.12-.18H22.83a1.51,1.51,0,0,1,.11-.22H13.4v1.07h9l.12-.22Z"/><path class="a" d="M29.58,77.12c-.08-.22-.15-.41-.22-.63H21.79a1.51,1.51,0,0,1,.11-.22H13.4v.22h0v.81h7.94v0l.11-.19h8.13Z"/><path class="a" d="M29.91,79.31a4.43,4.43,0,0,0,0-.63H20.6a.75.75,0,0,1,.15-.23H13.4v1.08h6.68v0l.11-.18Z"/><path class="a" d="M12.8,52.37a4.92,4.92,0,0,0-1.44.29,5.71,5.71,0,0,0-.67.3h2.67V52.4A2.82,2.82,0,0,0,12.8,52.37Z"/><path class="a" d="M9.46,54.55a4.29,4.29,0,0,0,0,.64h4v-.64Z"/><path class="a" d="M21.56,90.29a9.87,9.87,0,0,0,1.26-.63H13.4v.63Z"/><path class="a" d="M13.4,91.85v.6a25.1,25.1,0,0,0,3.64-.6Z"/><path class="a" d="M18.59,81.72l.15-.22H29.65c0-.22.08-.41.12-.63H19.19l0-.08.11-.15H13.4v.52h0l-.11,0a.4.4,0,0,1-.15,0h0c-1.52-.48-1.78-1.82-2.08-3.27a7,7,0,0,0-.66-2.15,6.72,6.72,0,0,0-2.12-1.93c-1.19-.81-2.45-1.67-2.45-3.23S6.94,68.4,8.13,68a4.37,4.37,0,0,0,2.08-1.26A6.43,6.43,0,0,0,11,65c.41-1.11.78-2.15,2.34-2.38a1.23,1.23,0,0,0-.11-.44,2.26,2.26,0,0,1-.11-.26h1.59l.08.07.44.41.6.52.18.15H13.36v1.08h4l.37.29.19.15.82.67H13.4v1h6.72l.15.15c.11.07.63.52,1.22,1H13.4v.22h0v.86h9.39a1.43,1.43,0,0,1,.15.11c.44.41.89.78,1.15,1H13.4v1H24.13a1.42,1.42,0,0,1,.07-.22H25c-.22-.19-.45-.41-.67-.64a17.18,17.18,0,0,0,.33-2.07,14.22,14.22,0,0,0,0-2.6,10.5,10.5,0,0,0-.93-3.64,8.77,8.77,0,0,0-1.85-2.67l-.26-.19a9.89,9.89,0,0,0-1.41-1.07,9.6,9.6,0,0,0-1.56-.82,8.93,8.93,0,0,0-2.82-.63,4.19,4.19,0,0,0-2.52.56H9.87a2,2,0,0,0-.11-.26,2.26,2.26,0,0,1-.11-.26l-1.22,1-.41.3c-.86.63-1.75,1.3-2.6,2s-1.34,1.08-1.89,1.6a13.25,13.25,0,0,0-1.67,1.71,7.07,7.07,0,0,0-1.86,4v.75a3,3,0,0,0,.11.78,6.58,6.58,0,0,0,1.15,2.52A15.71,15.71,0,0,0,3.41,73l.41.33.45.37c.78.67,1.56,1.34,2.3,2a9.34,9.34,0,0,1,.7.71,4.43,4.43,0,0,0-.55.63H7.83A14.68,14.68,0,0,1,9,78.68H5.94a3.6,3.6,0,0,0-.15.63h3.6c.15.26.26.48.41.74s.22.56.33.82H5.75c0,.22.08.41.11.63h4.5c.14.52.29,1,.4,1.56H6.53s0,.07,0,.11a5.89,5.89,0,0,0,.33.52h4L11.24,85l.08.22h-3l.07.07c.22.19.41.37.67.56h2.52c.08.15.11.33.19.44s.3.71.48,1.12H11.5a8.29,8.29,0,0,0,1,.44,1.81,1.81,0,0,0,.56.74,1.34,1.34,0,0,0,.4.19v-.56h0l.12-.11.11-.11H25.24c.18-.15.37-.3.55-.48s.11-.11.19-.15H14.14l.19-.22H13.4V86.07h1.89a1,1,0,0,1,.19-.23h12a4.57,4.57,0,0,0,.48-.63H16c.07-.07.11-.15.18-.22H13.4V83.88H17l.18-.23H28.91c.11-.22.19-.4.3-.63H17.63l.15-.22H13.4V81.69h5.19v0Zm-6-20.82a4.13,4.13,0,0,0-.37-.59c-.15-.23-.3-.49-.41-.63l-.07-.08h1.59v1.3h-.74Zm.78-3.53v1.56h-2l-.19-.26,0-.07-.63-.93c-.07-.11-.14-.18-.22-.3Z"/></svg>