<svg xmlns="http://www.w3.org/2000/svg" viewBox="0 0 141.73 141.73"><defs><style>.a{fill:#a38671;}</style></defs><path class="a" d="M8.54,69.11l3.69,8.27,3.62-8.2a26.63,26.63,0,0,0,1.64-4.68h4.73v1c-1.52.14-1.93.75-1.93,1.88a7.29,7.29,0,0,0,.07,1L21.55,78a2.43,2.43,0,0,0,2.55,2.46v.94H16.72v-.94a1.93,1.93,0,0,0,2.2-2.07c0-.17,0-.34-.05-.54l-1.11-10L13.87,77a41.78,41.78,0,0,0-1.64,4.43h-1a46.77,46.77,0,0,0-1.88-4.34L5,67.93,3.59,76.88a8,8,0,0,0-.09,1.23c0,1.62.72,2.27,2.32,2.36v.94H0v-.94c1.47,0,2.1-.74,2.36-2.51l1.4-9.19a7.51,7.51,0,0,0,.1-1.18c0-1.35-.53-2-1.91-2.12v-1H6.83A31.28,31.28,0,0,0,8.54,69.11ZM33.27,81.39a8.4,8.4,0,0,1-6.51-8.25c0-5.36,3.79-8.93,8.37-8.93a10.71,10.71,0,0,1,2.63.29,8.18,8.18,0,0,1,6.44,8.21c0,5.37-3.69,9-8.3,9A10.2,10.2,0,0,1,33.27,81.39ZM29.6,71.55c0,3.49,2.22,9,6.64,9,3.52,0,5.19-3,5.19-6.18,0-3.49-2.22-9-6.64-9C31.27,65.37,29.6,68.39,29.6,71.55Zm19.14-5.07a3.2,3.2,0,0,0-2.3-1v-1h4L63.14,77.36V69.23c0-1.93-.46-3.76-3-3.76v-1H66.9v1c-1.85,0-2.65,1.54-2.65,3.76v7.43c0,2.1,0,3.16.17,5H63.21a23,23,0,0,0-2.05-2.34L50.88,68.72v8.62c0,2.21,1,3.13,3,3.13v.94H46.83v-.94c2.15,0,3-.67,3-2.61V67.57Zm27,14.91a8.4,8.4,0,0,1-6.51-8.25c0-5.36,3.79-8.93,8.37-8.93a10.66,10.66,0,0,1,2.63.29,8.17,8.17,0,0,1,6.44,8.21c0,5.37-3.69,9-8.29,9A10.28,10.28,0,0,1,75.73,81.39Zm-3.67-9.84c0,3.49,2.22,9,6.64,9,3.53,0,5.19-3,5.19-6.18,0-3.49-2.22-9-6.63-9C73.73,65.37,72.06,68.39,72.06,71.55Zm33.06-2.85A7.49,7.49,0,0,0,99,65.37c-3.62,0-6,3.16-6,7s2.31,8.15,6.87,8.15c3,0,4.32-1.73,5.43-4.39h1.18l-1,4.32a16.47,16.47,0,0,1-5.93,1.23,10.94,10.94,0,0,1-4.44-.8,7.88,7.88,0,0,1-5-7.52c0-5.6,4.22-9.15,9.64-9.15a25,25,0,0,1,5.12.58l1.09,3.81Zm4.3-3.23v-1h8.23v1c-2.29,0-2.82,1-2.82,2.39V77.1c0,2.27.84,3.25,3.3,3.25h.41c2.17,0,3.59-.84,4.85-3.06h1l-1,4.12h-14v-.94c2.35-.14,2.83-.67,2.83-2.82V68C112.25,66.29,111.67,65.47,109.42,65.47Zm16.76,15.94v-.94c1.91,0,2.66-.72,2.66-2.51V68c0-1.64-.65-2.53-2.66-2.53v-1h14.2v3.79h-.89c-.87-2.24-1.91-2.7-4-2.7h-4.07v6.8h2.39c2.35,0,3.07-.38,3.19-2.15h1v5.41h-1c-.28-1.86-1-2.17-3.14-2.17h-2.44v3.76c0,2.39.68,3.11,2.9,3.11h1.09c2.78,0,4-.72,5.17-3.06h1.13l-1.13,4.12Z"/></svg>