<?xml version="1.0" encoding="utf-8"?>
<!-- Generator: Adobe Illustrator 22.0.1, SVG Export Plug-In . SVG Version: 6.00 Build 0)  -->
<svg version="1.1" id="Layer_1" xmlns="http://www.w3.org/2000/svg" xmlns:xlink="http://www.w3.org/1999/xlink" x="0px" y="0px"
	 viewBox="0 0 990.1 101.9" style="enable-background:new 0 0 990.1 101.9;" xml:space="preserve">
<g>
	<path d="M2.4,50.5c0-25.4,18.3-49,48.4-49s48.4,23.6,48.4,49s-18.3,49-48.4,49S2.4,75.9,2.4,50.5z M82.9,50.5
		c0-18.2-12.3-35.3-32.2-35.3S18.5,32.3,18.5,50.5s12.3,35.3,32.2,35.3C70.7,85.8,82.9,68.7,82.9,50.5z"/>
	<path d="M168.2,83.5v13.8H124V3.8h15.4v79.7H168.2z"/>
	<path d="M193.3,3.8h15.9v93.5h-15.9V3.8z"/>
	<path d="M274.6,97.3h-10.8L231.5,3.8h16.2l21.6,68l21.5-68H307L274.6,97.3z"/>
	<path d="M341,17.5V44h38.6v13.8H341v25.8h38.6v13.8h-54V3.8h54v13.8H341V17.5z"/>
	<path d="M407.1,3.8h33.5c20,0,33,15.1,33,32.7c0,13.4-7.5,25.2-19.8,30.3l18.6,30.5h-17.5l-17.1-28.1h-15.4v28.1H407L407.1,3.8
		L407.1,3.8z M458.3,36.5c0-10.3-6.9-19-17.6-19h-18.2v37.9h18.2C451.3,55.5,458.3,46.8,458.3,36.5z"/>
	<path d="M543.9,50.5c0-25.4,18.3-49,48.4-49c30.1,0,48.4,23.6,48.4,49s-18.3,49-48.4,49S543.9,75.9,543.9,50.5z M624.4,50.5
		c0-18.2-12.3-35.3-32.2-35.3S560,32.3,560,50.5s12.3,35.3,32.2,35.3C612.1,85.8,624.4,68.7,624.4,50.5z"/>
	<path d="M680.8,17.5V44h38.6v13.8h-38.6v25.8h38.6v13.8h-54V3.8h54v13.8h-38.6V17.5z"/>
	<path d="M764.9,17.5h-23.1V3.8h61.7v13.8h-23.2v79.7h-15.4V17.5z"/>
	<path d="M842,17.5h-23.1V3.8h61.7v13.8h-23.2v79.7H842V17.5z"/>
	<path d="M947.7,83.5v13.8h-44.2V3.8h15.4v79.7H947.7z"/>
	<path d="M972.1,3.8H988v93.5h-15.9V3.8z"/>
</g>
</svg>
